# xmcd CD database file
#
# Track frame offsets:
#	150
#	18677
#	50948
#	70107
#	122374
#	150926
#	187196
#	232290
#	243682
#
# Disc length: 3539 seconds
#
# Revision: 2
# Processed by: cddbd v1.4b41PL1 Copyright (c) Steve Scherf et al.
# Submitted via: Feurio! 1.50.2ß - http://www.feurio.com
#
DISCID=800dd109
DTITLE=PeeWee Bluesgang - Blood Sweat N Tears
DYEAR=1900
DGENRE=
TTITLE0=I Saw Elvis In Disguise
TTITLE1=Daydream
TTITLE2=Red Sox And Rock and Roll
TTITLE3=Going Down The Road
TTITLE4=California
TTITLE5=Thrill Is Gone
TTITLE6=Neanest Dog In A Dirty Town
TTITLE7=Amazing Grace
TTITLE8=Driver Of The Last Corvette
EXTD=nach über 13 Jahren und über 1000 Livegigs war es an der Zeit, endlich mal wieder ein Live-Album aufzulegen.
EXTT0=
EXTT1=
EXTT2=
EXTT3=
EXTT4=
EXTT5=
EXTT6=
EXTT7=
EXTT8=
PLAYORDER=
